<mxfile host="app.diagrams.net" modified="2023-12-16T03:26:45.668Z" agent="Mozilla/5.0 (Macintosh; Intel Mac OS X 10_15_7) AppleWebKit/537.36 (KHTML, like Gecko) Chrome/120.0.0.0 Safari/537.36" etag="h05GBr89L06OsdUWE7mN" version="22.1.11" type="github">
  <diagram name="第 1 页" id="8VG2jzm28DqljPEN07vd">
    <mxGraphModel dx="954" dy="606" grid="1" gridSize="10" guides="1" tooltips="1" connect="1" arrows="1" fold="1" page="1" pageScale="1" pageWidth="827" pageHeight="1169" math="0" shadow="0">
      <root>
        <mxCell id="0" />
        <mxCell id="1" parent="0" />
        <mxCell id="abI5oUMins9tQvVPAMcP-11" style="edgeStyle=orthogonalEdgeStyle;rounded=0;orthogonalLoop=1;jettySize=auto;html=1;entryX=0.5;entryY=0;entryDx=0;entryDy=0;" edge="1" parent="1" source="abI5oUMins9tQvVPAMcP-1" target="abI5oUMins9tQvVPAMcP-9">
          <mxGeometry relative="1" as="geometry" />
        </mxCell>
        <mxCell id="abI5oUMins9tQvVPAMcP-1" value="甲" style="rounded=0;whiteSpace=wrap;html=1;" vertex="1" parent="1">
          <mxGeometry x="80" y="80" width="120" height="60" as="geometry" />
        </mxCell>
        <mxCell id="abI5oUMins9tQvVPAMcP-2" value="乙" style="rounded=0;whiteSpace=wrap;html=1;" vertex="1" parent="1">
          <mxGeometry x="80" y="250" width="120" height="60" as="geometry" />
        </mxCell>
        <mxCell id="abI5oUMins9tQvVPAMcP-8" style="edgeStyle=orthogonalEdgeStyle;rounded=0;orthogonalLoop=1;jettySize=auto;html=1;" edge="1" parent="1" source="abI5oUMins9tQvVPAMcP-4">
          <mxGeometry relative="1" as="geometry">
            <mxPoint x="660" y="190" as="targetPoint" />
          </mxGeometry>
        </mxCell>
        <mxCell id="abI5oUMins9tQvVPAMcP-10" style="edgeStyle=orthogonalEdgeStyle;rounded=0;orthogonalLoop=1;jettySize=auto;html=1;entryX=1;entryY=0.5;entryDx=0;entryDy=0;" edge="1" parent="1" source="abI5oUMins9tQvVPAMcP-4" target="abI5oUMins9tQvVPAMcP-9">
          <mxGeometry relative="1" as="geometry" />
        </mxCell>
        <mxCell id="abI5oUMins9tQvVPAMcP-4" value="后端程序" style="shape=cylinder3;whiteSpace=wrap;html=1;boundedLbl=1;backgroundOutline=1;size=15;" vertex="1" parent="1">
          <mxGeometry x="520" y="130" width="60" height="120" as="geometry" />
        </mxCell>
        <mxCell id="abI5oUMins9tQvVPAMcP-6" value="大模型API" style="rhombus;whiteSpace=wrap;html=1;" vertex="1" parent="1">
          <mxGeometry x="660" y="150" width="160" height="80" as="geometry" />
        </mxCell>
        <mxCell id="abI5oUMins9tQvVPAMcP-7" style="edgeStyle=orthogonalEdgeStyle;rounded=0;orthogonalLoop=1;jettySize=auto;html=1;entryX=1;entryY=0.5;entryDx=0;entryDy=0;entryPerimeter=0;" edge="1" parent="1" source="abI5oUMins9tQvVPAMcP-6" target="abI5oUMins9tQvVPAMcP-4">
          <mxGeometry relative="1" as="geometry" />
        </mxCell>
        <mxCell id="abI5oUMins9tQvVPAMcP-12" style="edgeStyle=orthogonalEdgeStyle;rounded=0;orthogonalLoop=1;jettySize=auto;html=1;entryX=1;entryY=0.5;entryDx=0;entryDy=0;exitX=0.5;exitY=1;exitDx=0;exitDy=0;" edge="1" parent="1" source="abI5oUMins9tQvVPAMcP-9" target="abI5oUMins9tQvVPAMcP-2">
          <mxGeometry relative="1" as="geometry" />
        </mxCell>
        <mxCell id="abI5oUMins9tQvVPAMcP-9" value="bot" style="rounded=0;whiteSpace=wrap;html=1;" vertex="1" parent="1">
          <mxGeometry x="280" y="160" width="120" height="60" as="geometry" />
        </mxCell>
      </root>
    </mxGraphModel>
  </diagram>
</mxfile>
